<svg width="18" height="16" viewBox="0 0 18 16" fill="none" xmlns="http://www.w3.org/2000/svg">
<path d="M16.5038 9.26909L17.981 2.87065C18.0877 2.40867 17.731 1.96875 17.2497 1.96875H4.97525L4.68881 0.590317C4.61744 0.24674 4.31031 0 3.95403 0H0.75C0.335781 0 0 0.330535 0 0.738281V1.23047C0 1.63822 0.335781 1.96875 0.75 1.96875H2.93384L5.1291 12.5334C4.60391 12.8307 4.25 13.3882 4.25 14.0273C4.25 14.9787 5.0335 15.75 6 15.75C6.9665 15.75 7.75 14.9787 7.75 14.0273C7.75 13.5452 7.54853 13.1096 7.22425 12.7969H13.7757C13.4515 13.1096 13.25 13.5452 13.25 14.0273C13.25 14.9787 14.0335 15.75 15 15.75C15.9665 15.75 16.75 14.9787 16.75 14.0273C16.75 13.3453 16.3473 12.7559 15.7632 12.4768L15.9356 11.73C16.0422 11.268 15.6855 10.8281 15.2042 10.8281H6.81616L6.61163 9.84375H15.7724C16.1226 9.84375 16.4262 9.60522 16.5038 9.26909Z" fill="white"/>
</svg>
