<svg width="130" height="34" viewBox="0 0 130 34" fill="none" xmlns="http://www.w3.org/2000/svg">
<path d="M0.344753 27.7112L0.821763 27.0392C1.44246 26.2235 2.06315 26.1754 3.01847 26.7029C4.11682 27.4237 6.12259 28.6713 8.93934 28.6713C11.327 28.6713 13.046 27.5193 13.046 25.4553C13.046 20.7046 0.582932 22.288 0.582932 14.0819C0.582932 9.4744 4.59382 7.07471 9.3212 7.07471C12.6642 7.07471 14.8609 8.22674 16.0065 8.9462C16.866 9.37813 17.009 10.1939 16.532 11.0577L16.1023 11.7778C15.6246 12.6417 14.9081 12.7373 14.0013 12.3054C12.9981 11.7303 11.3749 10.914 9.08302 10.914C6.79053 10.914 5.02358 11.9222 5.02358 13.985C5.02358 18.8332 17.4867 17.1048 17.4867 25.3596C17.4867 29.4864 14.0013 32.5106 8.7963 32.5106C4.78476 32.5106 2.0159 30.8785 0.678719 29.8702C-0.13291 29.3427 -0.180799 28.5269 0.344753 27.7112Z" fill="#334150"/>
<path d="M38.0577 17.2004C37.9146 12.9292 35.3839 10.7214 32.1847 10.7214C28.6514 10.7214 25.7861 13.1211 25.1175 17.2004H38.0577ZM32.2798 7.07471C38.9651 7.07471 42.6892 11.8734 42.6892 18.6406C42.6892 19.5038 42.0213 20.2721 41.066 20.2721H24.9266C25.2127 25.5509 28.9848 28.4788 33.283 28.4788C35.9095 28.4788 37.9625 27.3749 39.0609 26.5591C39.9676 26.0784 40.6841 26.1747 41.209 27.0867L41.6388 27.8068C42.1164 28.6225 41.9734 29.4383 41.1618 29.9183C39.7288 30.9266 36.8642 32.5099 32.9963 32.5099C25.4036 32.5099 20.1992 26.9911 20.1992 19.792C20.1992 12.0653 25.4036 7.07471 32.2798 7.07471Z" fill="#334150"/>
<path d="M58.2639 7.07471C62.3227 7.07471 64.9485 8.65868 66.2378 9.66565C67.0501 10.1939 67.0973 11.0102 66.5245 11.826L66.0468 12.5454C65.474 13.4093 64.8055 13.4574 63.898 12.9292C62.8955 12.2098 61.0334 11.1059 58.5027 11.1059C53.6323 11.1059 50.0984 14.7532 50.0984 19.7445C50.0984 24.687 53.6323 28.4788 58.5985 28.4788C61.5111 28.4788 63.612 27.1348 64.7576 26.271C65.6171 25.6953 66.3336 25.7909 66.907 26.7029L67.2882 27.423C67.7665 28.2388 67.6229 29.007 66.8585 29.5345C65.5219 30.6385 62.6094 32.5106 58.2639 32.5106C50.6719 32.5106 45.371 27.0874 45.371 19.7926C45.371 12.5936 50.7191 7.07471 58.2639 7.07471Z" fill="#334150"/>
<path d="M73.1205 11.702H71.4493C70.4468 11.702 69.9219 11.1263 69.9219 10.1181V9.49424C69.9219 8.48726 70.4468 7.91092 71.4972 7.91092H73.2156V2.58332C73.2156 1.52756 73.7891 1 74.7923 1H76.1767C77.2272 1 77.7521 1.52756 77.7521 2.58332V7.91092H81.9546C83.005 7.91092 83.5306 8.48726 83.5306 9.49424V10.1181C83.5306 11.1263 83.005 11.702 82.0025 11.702H77.7521V22.5003C77.7521 27.1078 80.5701 27.8273 82.3364 27.9717C83.5778 28.0673 84.0076 28.4511 84.0076 29.555V30.5626C84.0076 31.6665 83.3869 32.1466 82.0976 32.1466C77.323 32.1466 73.1205 29.3625 73.1205 23.2198V11.702Z" fill="#334150"/>
<path d="M115.484 9.25471C115.484 8.19895 116.058 7.67074 117.06 7.67074H118.398C119.448 7.67074 119.974 8.19895 119.974 9.25471V12.0382C119.974 13.0465 119.83 13.8622 119.83 13.8622H119.925C120.975 10.6468 123.697 7.47949 127.327 7.47949C128.424 7.47949 128.854 8.00705 128.854 9.06281V10.4067C128.854 11.4625 128.234 11.9907 127.136 11.9907C122.408 11.9907 120.116 17.1258 120.116 21.9252V30.3713C120.116 31.427 119.591 31.9546 118.541 31.9546H117.06C116.058 31.9546 115.484 31.427 115.484 30.3713V9.25471Z" fill="#334150"/>
<path d="M104.742 8.39746L103.312 12.4085C104.681 13.2808 105.778 14.5584 106.447 16.128L110.927 14.8166C109.737 11.9596 107.528 9.71473 104.742 8.39746Z" fill="#FB7D29"/>
<path d="M107.107 18.6289C107.149 18.9932 107.176 19.3633 107.176 19.7445C107.176 24.8314 103.452 28.4794 98.8685 28.4794C94.332 28.4794 90.56 24.8314 90.56 19.7445C90.56 14.7057 94.332 11.1065 98.8685 11.1065C99.5817 11.1065 100.27 11.2028 100.931 11.3693L102.306 7.50989C101.21 7.23343 100.061 7.07471 98.8685 7.07471C91.6577 7.07471 85.8799 12.4017 85.8799 19.7445C85.8799 27.1349 91.6577 32.5106 98.8685 32.5106C106.079 32.5106 111.904 27.1349 111.904 19.7445C111.904 18.8976 111.818 18.0812 111.67 17.2934L107.107 18.6289Z" fill="#334150"/>
</svg>
